<svg width="190" height="17" viewBox="0 0 190 17" fill="none" xmlns="http://www.w3.org/2000/svg">
<path d="M5.56331 15.2827C7.05388 15.2768 8.91763 14.9421 10.3899 15.0576C10.4102 15.0592 10.4306 15.0609 10.451 15.0625C11.0526 15.1097 11.6666 15.1866 12.4237 15.2792C12.5216 15.291 12.6208 15.3034 12.7166 15.3158C13.5859 15.4262 14.7031 15.556 16.1639 15.694C21.1443 16.1547 25.0214 15.6224 26.2272 15.4565C28.6535 15.1239 31.2545 15.0424 34.796 14.9371C35.1178 14.9276 35.4506 14.9188 35.7952 14.9085C36.0744 14.9001 36.314 15.104 36.3275 15.3648C36.341 15.6256 36.1231 15.8439 35.8437 15.8523C35.5062 15.8624 35.1804 15.8722 34.8658 15.8815C34.8644 15.8816 34.863 15.8816 34.8615 15.8816C31.2986 15.9877 28.7541 16.0677 26.3866 16.3923C25.1592 16.5616 21.1812 17.1059 16.0812 16.6339C14.6008 16.4946 13.473 16.3645 12.6053 16.2533C12.5048 16.2413 12.4075 16.2293 12.3136 16.2178C12.3114 16.2175 12.3092 16.2172 12.307 16.2169C11.5552 16.1234 10.9547 16.0497 10.3865 16.0042C10.3745 16.0035 10.3625 16.0027 10.3505 16.002C8.86173 15.8852 7.03009 16.2216 5.58379 16.2273C5.29842 16.2286 5.06704 16.0176 5.06223 15.7567C5.05632 15.496 5.27973 15.2842 5.56331 15.2827ZM106.225 10.8031C107.664 10.458 109.589 10.4978 111.278 10.654C112.991 10.8112 114.524 11.0927 115.254 11.2653C115.967 11.434 116.757 11.4895 117.696 11.5247C117.911 11.5327 118.134 11.5397 118.365 11.5469C119.128 11.5709 119.987 11.5979 120.919 11.6746C124.349 11.9567 126.584 11.9751 128.187 11.9552C128.515 11.9511 128.819 11.9451 129.104 11.9395C129.104 11.9395 129.105 11.9396 129.105 11.9396C130.176 11.9186 131.001 11.9036 131.737 12.0139C133.043 12.2103 134.136 12.3844 135.431 12.7216C137.211 13.1865 139.752 13.1442 141.44 12.8385C141.531 12.8217 141.625 12.8039 141.719 12.7864C142.908 12.5633 144.428 12.2892 146.623 12.0926C148.5 11.9297 150.086 11.9547 151.518 12.015C151.926 12.0322 152.294 12.0526 152.68 12.0718C153.639 12.12 154.476 12.1636 155.249 12.1497C155.252 12.1497 155.256 12.1496 155.259 12.1496C160.222 12.0621 163.053 12.271 164.819 12.5524C166.229 12.77 166.929 13.0357 167.512 13.2289C167.681 13.2871 167.828 13.3394 167.966 13.3807C169.172 13.749 170.305 13.9258 171.689 14.1423C171.994 14.1904 172.278 14.24 172.626 14.2949C173.729 14.4774 174.552 14.4703 175.18 14.4196C175.443 14.3971 175.718 14.3683 175.947 14.3398C175.951 14.3392 175.956 14.3385 175.96 14.3379C175.993 14.3339 176.025 14.3304 176.057 14.3265C176.081 14.3236 176.105 14.3197 176.129 14.3169C176.139 14.3124 176.147 14.3096 176.154 14.3071C176.159 14.3051 176.163 14.3037 176.165 14.3027C176.166 14.3024 176.166 14.302 176.167 14.3016C176.213 14.2848 176.251 14.2787 176.259 14.2774C176.273 14.2751 176.286 14.2743 176.292 14.2737C176.325 14.2702 176.368 14.269 176.396 14.2685C176.47 14.2672 176.589 14.2666 176.79 14.2682C176.969 14.2598 177.139 14.2417 177.348 14.2185C177.361 14.2169 177.374 14.2154 177.387 14.2139C177.593 14.1914 177.81 14.1651 178.118 14.1427C178.397 14.1223 178.636 14.3168 178.663 14.5772C178.689 14.8376 178.496 15.0651 178.221 15.0856C177.928 15.1064 177.721 15.1313 177.52 15.1539C177.507 15.1554 177.494 15.157 177.481 15.1585C177.272 15.1821 177.07 15.2041 176.848 15.2139C176.775 15.2172 176.694 15.2191 176.63 15.2203C176.509 15.2285 176.37 15.2446 176.201 15.2652C176.167 15.2693 176.132 15.273 176.096 15.2774C175.866 15.3058 175.584 15.3387 175.278 15.3626C174.584 15.419 173.678 15.4246 172.472 15.2261C172.153 15.174 171.869 15.1261 171.571 15.0791C170.185 14.8622 168.98 14.6734 167.685 14.2826C167.504 14.2289 167.329 14.1682 167.14 14.1038C166.591 13.9132 165.964 13.6856 164.678 13.4849C162.987 13.2169 160.234 13.0079 155.3 13.0948C155.28 13.0951 155.26 13.0954 155.24 13.0957C154.443 13.1076 153.565 13.0618 152.607 13.0137C152.235 12.995 151.876 12.9769 151.493 12.9608C150.085 12.9015 148.547 12.8774 146.738 13.0347C144.589 13.2268 143.108 13.4928 141.928 13.7149C141.887 13.7228 141.846 13.7307 141.804 13.7387C141.753 13.7482 141.702 13.7576 141.651 13.767C139.859 14.0927 137.145 14.1463 135.183 13.6328C133.942 13.3104 132.902 13.143 131.6 12.9477C130.958 12.8517 130.254 12.8647 129.202 12.8847C128.907 12.8903 128.582 12.8956 128.22 12.9001C126.589 12.9203 124.32 12.9021 120.852 12.6169C119.95 12.5426 119.128 12.5167 118.369 12.4929C118.134 12.4855 117.903 12.4779 117.676 12.4694C116.733 12.4341 115.851 12.3779 115.027 12.1829C114.353 12.0226 112.866 11.7481 111.2 11.5952C109.535 11.4412 107.755 11.4168 106.489 11.7201C106.358 11.7517 106.225 11.7828 106.092 11.8142C104.949 12.0847 103.781 12.3607 102.843 12.8204C98.6367 15.7095 91.0176 14.6122 85.9912 14.446C85.9253 14.4438 85.8593 14.4416 85.7934 14.4394C79.9916 14.2471 75.7801 14.2847 74.34 14.2976C74.2732 14.2982 74.2124 14.2988 74.1579 14.2993C74.1091 14.2997 74.065 14.3006 74.0262 14.3008C73.4442 14.3049 72.9295 14.3401 72.3813 14.3769C72.3515 14.3789 72.3218 14.3809 72.292 14.383C71.7158 14.4217 71.1134 14.4598 70.4058 14.459C67.758 14.4563 65.6082 14.5081 63.7391 14.562C63.3954 14.5719 63.0626 14.5811 62.7394 14.5909C62.7385 14.5909 62.7375 14.5909 62.7366 14.5909C61.2817 14.6343 60.0282 14.6736 58.8138 14.6803C56.597 14.6926 55.1155 14.7616 53.958 14.8334C53.5974 14.8559 53.2675 14.8786 52.958 14.9005C52.2621 14.9478 51.6619 14.9894 51.0506 15.0068C49.9237 15.0394 48.814 15.1128 47.7864 15.1844C47.6942 15.1907 47.6024 15.1966 47.5108 15.2029C46.4916 15.2729 45.4379 15.3397 44.4081 15.361L44.5233 15.359C44.4092 15.3632 44.2949 15.3668 44.1803 15.3699C43.8994 15.3774 43.6633 15.1711 43.6507 14.9103C43.6385 14.6496 43.8543 14.4323 44.1349 14.4248C44.2566 14.4215 44.378 14.4176 44.4993 14.4131L44.3992 14.4149C45.3915 14.3935 46.4054 14.3294 47.4216 14.26C47.5135 14.2536 47.606 14.2467 47.6989 14.2403C48.7211 14.1689 49.8556 14.0956 51.0015 14.0623C51.5908 14.0455 52.1568 14.0064 52.8386 13.9599C53.1601 13.9378 53.4927 13.914 53.8738 13.8903C55.047 13.8174 56.5512 13.7469 58.7883 13.7345C59.9903 13.7278 61.224 13.6898 62.6809 13.6464C63.006 13.6365 63.3418 13.6263 63.6896 13.6162C65.5627 13.5622 67.7246 13.5104 70.3875 13.5131C71.056 13.5139 71.6269 13.4782 72.2004 13.4396C72.2326 13.4376 72.2648 13.4355 72.297 13.4335C72.8396 13.397 73.3856 13.3593 73.9997 13.355C74.0819 13.3544 74.187 13.354 74.3135 13.3529C75.7555 13.34 79.9851 13.3016 85.8086 13.4945C85.8266 13.4953 85.8447 13.496 85.8627 13.4968C89.7686 13.6262 91.9681 13.7011 93.623 13.4663C94.9307 13.2812 95.9106 13.2336 96.7114 13.2108C96.8643 13.2065 97.009 13.2023 97.147 13.199C97.7431 13.1848 98.2145 13.1734 98.6856 13.1078C100.111 12.9094 101.132 12.5849 102.369 11.9792C103.416 11.4658 104.703 11.1625 105.827 10.8972C105.828 10.8969 105.83 10.8965 105.832 10.8961C105.965 10.8646 106.097 10.8339 106.225 10.8031ZM182.018 13.6706C182.296 13.6923 182.496 13.9205 182.479 14.1807C182.463 14.4411 182.237 14.6351 181.962 14.6138C181.345 14.5646 180.702 14.5179 180.05 14.4734C179.79 14.4552 179.579 14.2299 179.591 13.9695C179.603 13.7089 179.836 13.5117 180.097 13.5297C180.752 13.5744 181.398 13.6213 182.018 13.6706ZM105.074 6.0995C105.344 6.04674 105.613 6.21224 105.674 6.46796C105.735 6.72348 105.565 6.97306 105.296 7.02576C105.153 7.05365 104.918 7.10409 104.603 7.17219C102.329 7.66257 95.8389 9.06461 88.9629 9.48287C88.3849 9.51808 87.868 9.55285 87.3709 9.5862C85.2534 9.72903 83.5567 10.4026 79.5142 10.3841C67.7792 10.3326 56.062 9.78056 44.3556 9.79619L44.3818 9.79573C39.0819 9.88928 33.8378 10.0918 28.5815 10.5011C23.707 10.8815 18.7998 11.0715 13.9119 11.2212C9.82235 11.3431 2.31806 11.1389 0.506149 11.0791C0.218999 11.0734 -0.00363391 10.855 2.63986e-05 10.594C0.00247525 10.3332 0.227264 10.1287 0.50945 10.1343C2.2782 10.1939 9.76297 10.3989 13.8383 10.2772C18.7157 10.1278 23.6141 9.93862 28.4818 9.5588C33.7623 9.14764 39.0273 8.8338 44.3511 8.58737C56.0616 8.23436 67.7951 8.24138 79.532 8.29297C83.5361 8.31134 85.1683 8.78613 87.2776 8.64387C87.7754 8.61044 88.2966 8.57488 88.8796 8.53935C95.6594 8.12689 102.052 6.74746 104.353 6.25176C104.679 6.18157 104.923 6.12899 105.074 6.0995ZM117.943 6.50996C121.041 6.44426 125.417 6.5822 129.261 6.70702C131.146 6.76785 132.856 6.82592 134.27 6.85351C136.425 6.89615 137.792 7.12864 139.132 7.35964C139.147 7.36204 139.161 7.36444 139.175 7.36684C140.5 7.59767 141.874 7.82535 144.058 7.87266C146.265 7.92042 149.334 7.78615 152.404 7.65544C152.406 7.65546 152.408 7.65548 152.411 7.6555C153.393 7.61475 154.37 7.52688 155.291 7.42731C157.392 7.21118 159.319 6.9408 160.856 6.98344C168.71 7.19961 173.516 7.95845 175.947 8.53498C180.129 9.58327 185.202 8.57685 189.162 10.4914C189.583 10.8336 188.641 11.363 187.886 11.0326C187.858 11.0223 187.831 11.0121 187.803 11.0019C187.525 10.9044 187.297 10.828 186.94 10.7489C186.432 10.6591 186.044 10.621 185.686 10.5877C184.79 10.454 178.078 9.9929 175.72 9.45302C173.427 8.90744 168.701 9.29153 160.809 9.07415C159.289 9.03195 157.384 8.75875 155.28 8.63776C154.385 8.58429 153.438 8.56073 152.467 8.60076C152.459 8.60108 152.45 8.60141 152.442 8.60173C149.401 8.73146 146.297 8.86714 144.056 8.81862C141.795 8.76961 140.353 8.53069 139.016 8.29689C139.003 8.2945 138.99 8.2921 138.977 8.28971C137.646 8.06088 136.346 7.83938 134.269 7.7983C132.825 7.7701 131.094 7.71286 129.198 7.6516C125.37 7.52723 121.058 7.38972 117.985 7.45483C117.71 7.46058 117.477 7.2535 117.465 6.99252C117.453 6.73169 117.668 6.51591 117.943 6.50996ZM118.018 0.6212C126.714 -0.409631 135.448 -0.0867682 144.013 1.06889C146.25 1.11717 149.38 1.2104 152.482 1.30914C152.517 1.31058 152.55 1.31201 152.587 1.31347C153.538 1.34308 154.465 1.3729 155.345 1.40171C157.482 1.46944 159.422 1.5327 160.965 1.5754C168.838 1.79194 173.704 2.07333 176.172 2.65119C178.471 3.19081 179.089 3.21724 180.061 3.25611C180.087 3.25749 180.113 3.25887 180.138 3.26024C180.14 3.25953 180.142 3.25882 180.144 3.25811C180.177 3.24721 180.204 3.24131 180.218 3.23883C180.247 3.23377 180.27 3.23238 180.279 3.23184C180.299 3.2306 180.316 3.23111 180.322 3.23117C180.346 3.23144 180.374 3.2327 180.392 3.2339C180.541 3.24436 181.113 3.29599 181.514 3.35282C181.954 3.41221 182.263 3.47839 182.581 3.55096C182.616 3.55851 182.65 3.56605 182.684 3.5736C182.992 3.64069 183.283 3.71161 183.767 3.80037C184.048 3.85388 184.23 4.10514 184.181 4.36104C184.12 4.61597 183.872 4.7802 183.585 4.7269C183.086 4.63456 182.772 4.55923 182.461 4.49209C182.43 4.48472 182.398 4.47734 182.367 4.46997C182.071 4.40123 181.779 4.34352 181.404 4.29135C180.863 4.23849 180.431 4.21949 180.067 4.20417C179.064 4.16349 178.35 4.13207 175.944 3.56801C173.619 3.02117 168.874 2.73815 160.957 2.52016C159.413 2.4774 157.472 2.41416 155.336 2.34649C154.456 2.31766 153.528 2.28783 152.577 2.25821C152.54 2.25713 152.505 2.25608 152.47 2.25502C149.366 2.15623 146.242 2.06184 144.01 2.01368C135.312 1.82624 126.803 2.27161 118.061 1.56607C116.461 1.60018 114.977 1.61245 113.624 1.62388C109.612 1.65755 106.545 1.68621 103.611 2.25912C102.968 2.38475 101.285 2.49095 98.8506 2.6243C98.1372 2.66338 97.3547 2.70445 96.5098 2.74951C94.4361 2.85997 91.9828 2.99121 89.2142 3.15915C88.6344 3.19434 88.1209 3.2291 87.6223 3.26244C85.5017 3.4052 83.8311 3.5184 79.7872 3.49973C74.7953 3.47606 66.4784 3.2691 61.995 3.11123C59.7466 3.03164 58.4983 2.95492 57.5961 2.89033C57.3473 2.87235 57.1294 2.85482 56.93 2.83933C56.4075 2.7989 56.0157 2.76792 55.468 2.74888C51.6433 2.6118 48.9202 2.74092 44.5282 3.01166C44.444 3.01693 44.3632 3.00134 44.2911 2.96949C44.2746 2.97104 44.2247 2.96912 44.2082 2.97093C44.0403 2.90337 43.916 2.75587 43.8968 2.57695C43.875 2.37291 43.9964 2.18814 44.1863 2.10754C44.2055 2.10543 44.2637 2.10767 44.283 2.10586C44.3329 2.08461 44.3877 2.07129 44.4457 2.06761C48.8452 1.79632 51.6077 1.665 55.4872 1.80396C56.0604 1.82382 56.4769 1.85758 57.0103 1.89873C57.207 1.914 57.4177 1.93048 57.6539 1.94754C58.5427 2.01106 59.7758 2.08717 62.014 2.16634C66.4896 2.32395 74.7958 2.53022 79.7728 2.5538C83.7775 2.57229 85.4164 2.46234 87.5289 2.3201C88.0283 2.28669 88.5455 2.25113 89.1301 2.21563C91.9022 2.04743 94.3627 1.91529 96.4379 1.80475C97.2818 1.75974 98.0624 1.71846 98.7731 1.67953C101.257 1.54348 102.839 1.44054 103.389 1.33289C106.426 0.739853 109.627 0.710426 113.677 0.676836C115.015 0.665658 116.469 0.654218 118.018 0.6212ZM28.5584 3.23042C28.8372 3.20895 29.0926 3.40272 29.1155 3.66289C29.1453 3.92281 28.9381 4.15114 28.658 4.17271C27.1968 4.28608 26.1447 4.37593 25.3361 4.44612C23.8105 4.57703 23.1013 4.64033 21.9868 4.66779C19.1595 4.73727 16.4129 4.81768 13.9531 4.89274C9.88025 5.0171 6.5222 5.12581 4.77891 5.13006C4.50796 5.13075 4.28162 4.91936 4.27491 4.65849C4.27207 4.39775 4.48845 4.18628 4.75921 4.18542C6.48675 4.18129 9.8212 4.0739 13.8791 3.94992C16.34 3.87478 19.0997 3.79261 21.9443 3.72271C23.0254 3.69607 23.6908 3.63719 25.1889 3.50884C25.9915 3.43879 27.0634 3.3467 28.5584 3.23042Z" fill="white"/>
</svg>
