<svg width="67" height="70" viewBox="0 0 67 70" fill="none" xmlns="http://www.w3.org/2000/svg">
<path d="M35.72 51.28L44.56 36C45.04 35.1733 45.3733 34.4533 45.56 33.84C45.7733 33.2 45.7733 32.68 45.56 32.28C45.3733 31.8533 44.96 31.64 44.32 31.64H41.52C39.4933 31.64 37.7333 32.24 36.24 33.44C34.7467 34.6133 33.84 36.04 33.52 37.72H32.44L33.96 30.72C40.28 30.72 48.48 30.7333 58.56 30.76V31.64C57.5733 31.8267 56.7733 32.4533 56.16 33.52L48.04 47.72C47.4267 48.6533 46.9867 49.4533 46.72 50.12C46.4533 50.7867 46.3333 51.4533 46.36 52.12C46.4133 52.76 46.6667 53.36 47.12 53.92C47.5733 54.48 48.2533 55.04 49.16 55.6C52.9467 58.0267 55.88 59.0267 57.96 58.6C59.5867 58.28 60.24 57.1067 59.92 55.08C62.6133 55.16 64.3867 56.1333 65.24 58C65.9067 59.4667 65.8267 60.96 65 62.48C64.0667 64.08 62.7067 64.8933 60.92 64.92C59.8267 64.9467 58.7333 64.68 57.64 64.12C56.5733 63.56 55.64 62.9067 54.84 62.16C54.0667 61.4133 53.0667 60.5333 51.84 59.52C50.64 58.5067 49.5067 57.6933 48.44 57.08C47.7733 56.7067 47.1333 56.3733 46.52 56.08C45.9067 55.8133 45.32 55.5733 44.76 55.36C44.2 55.1467 43.64 54.96 43.08 54.8C42.52 54.64 41.9733 54.5067 41.44 54.4C40.9067 54.32 40.36 54.2533 39.8 54.2C39.2667 54.1467 38.72 54.1067 38.16 54.08C37.6267 54.0533 37.0533 54.0267 36.44 54C35.8533 54 35.2533 54 34.64 54C34.0267 54.0267 33.3733 54.04 32.68 54.04V53.16C34.1467 52.8933 35.16 52.2667 35.72 51.28Z" fill="white"/>
<path d="M17.8 20.12C17.72 20.0133 17.6 19.8533 17.44 19.64C17.28 19.4 17.16 19.2267 17.08 19.12C16.6533 18.7467 16.08 18.4933 15.36 18.36C14.6667 18.2 13.9733 18.24 13.28 18.48C12.6133 18.72 12.1733 19.1467 11.96 19.76C12.2 19.7067 12.4533 19.68 12.72 19.68C13.92 19.68 14.9467 20.1067 15.8 20.96C16.6533 21.8133 17.08 22.8533 17.08 24.08C17.08 24.8267 16.8933 25.5333 16.52 26.2C16.1733 26.8933 15.64 27.4667 14.92 27.92C14.2267 28.3467 13.4 28.5467 12.44 28.52C11.1333 28.52 9.97333 28.1067 8.96 27.28C7.94667 26.4533 7.44 25.24 7.44 23.64C7.44 22.2 7.93333 20.9333 8.92 19.84C10.8933 17.6267 13.4267 16.8 16.52 17.36C21.16 18.24 25.7467 18.2533 30.28 17.4V18.24C29.8 18.3733 29.44 18.5467 29.2 18.76C28.96 18.9733 28.8267 19.24 28.8 19.56C28.8 19.8533 28.84 20.16 28.92 20.48C29 20.8 29.16 21.1467 29.4 21.52C29.64 21.8933 29.8533 22.2267 30.04 22.52C30.2533 22.8133 30.48 23.1333 30.72 23.48C30.9867 23.8 31.16 24.0267 31.24 24.16L36.68 31.16V26.48C36.68 25.4933 36.6267 24.6 36.52 23.8C36.4133 23 36.2267 22.1867 35.96 21.36C35.6933 20.5067 35.2667 19.8133 34.68 19.28C34.12 18.7467 33.4267 18.4 32.6 18.24V17.4C35.6667 18.0933 38.68 18.0933 41.64 17.4V18.24C41.0533 18.3467 40.5333 18.5467 40.08 18.84C39.6533 19.1333 39.2933 19.4933 39 19.92C38.7067 20.3467 38.4667 20.8133 38.28 21.32C38.0933 21.8 37.9467 22.3467 37.84 22.96C37.7333 23.5733 37.6533 24.16 37.6 24.72C37.5733 25.2533 37.56 25.84 37.56 26.48V44H36.2L17.84 20.16L17.8 20.12ZM15.44 28.44C15.76 28.28 16.0533 28.0933 16.32 27.88V31.64C16.32 34.4933 17.04 37 18.48 39.16C19.9467 41.32 21.6 42.5733 23.44 42.92V44C21.92 43.68 19.4 43.52 15.88 43.52C12.36 43.52 9.84 43.68 8.32 44V42.92C9.49333 42.7067 10.6133 42.0667 11.68 41C12.7733 39.9333 13.6667 38.56 14.36 36.88C15.08 35.2 15.44 33.4533 15.44 31.64V28.44Z" fill="white"/>
<rect x="0.5" y="4.5" width="62" height="61" rx="30.5" stroke="white"/>
</svg>
